<?xml version="1.0" standalone="no"?>
<!DOCTYPE svg PUBLIC "-//W3C//DTD SVG 20010904//EN"
 "http://www.w3.org/TR/2001/REC-SVG-20010904/DTD/svg10.dtd">
<svg version="1.0" xmlns="http://www.w3.org/2000/svg"
 width="230.000000pt" height="266.000000pt" viewBox="0 0 230.000000 266.000000"
 preserveAspectRatio="xMidYMid meet">

<g transform="translate(0.000000,266.000000) scale(0.100000,-0.100000)"
fill="#000000" stroke="none">
<path d="M1121 2636 c-18 -21 -10 -97 12 -110 28 -18 52 4 55 53 3 46 -10 71
-38 71 -10 0 -23 -6 -29 -14z"/>
<path d="M1032 2459 c-27 -47 -26 -49 51 -93 l47 -27 0 63 c0 60 -2 64 -31 81
-17 9 -34 17 -37 17 -4 0 -18 -19 -30 -41z"/>
<path d="M1198 2482 c-26 -16 -28 -22 -28 -80 l0 -63 48 27 c75 43 76 44 50
92 -25 46 -30 48 -70 24z"/>
<path d="M949 2316 c-13 -25 -21 -47 -19 -50 3 -2 48 -30 100 -61 l95 -56 3
52 c2 28 1 57 -1 64 -4 10 -138 95 -150 95 -2 0 -15 -20 -28 -44z"/>
<path d="M1251 2321 c-35 -22 -67 -43 -73 -49 -5 -5 -8 -34 -6 -65 l3 -57 95
56 c52 31 97 58 99 60 6 6 -41 94 -49 94 -3 -1 -34 -18 -69 -39z"/>
<path d="M866 2172 c-22 -35 -25 -47 -14 -54 71 -46 191 -109 197 -102 4 5 17
25 29 44 20 33 20 37 4 46 -9 6 -56 33 -103 61 l-86 51 -27 -46z"/>
<path d="M1303 2157 l-102 -61 21 -35 c12 -20 25 -40 29 -45 6 -7 126 56 197
102 11 7 8 18 -15 54 l-28 45 -102 -60z"/>
<path d="M1048 1950 c-53 -93 -93 -172 -87 -175 5 -4 9 -17 9 -30 0 -31 -26
-39 -82 -25 -25 6 -121 10 -234 8 l-191 -3 114 -198 114 -198 -114 -197 -115
-197 206 -3 c222 -3 275 5 343 50 19 13 44 43 57 68 l22 45 -124 3 c-108 2
-126 5 -141 22 -15 17 -16 24 -7 45 12 25 12 25 147 25 l135 0 0 38 c0 45 14
62 50 62 36 0 50 -17 50 -62 l0 -38 128 0 c135 0 152 -5 152 -47 0 -35 -29
-43 -155 -43 l-117 0 7 -27 c11 -46 44 -81 103 -110 57 -28 58 -28 291 -31
l233 -3 -20 33 c-11 18 -63 108 -116 200 l-97 167 96 168 c54 92 106 183 117
201 l20 32 -170 0 -169 0 -7 -69 c-3 -38 -15 -99 -26 -135 -22 -71 -22 -71 23
-128 34 -43 33 -72 -5 -76 -19 -2 -34 6 -55 28 l-30 32 -32 -32 c-24 -25 -37
-31 -54 -25 -12 4 -38 8 -57 8 -30 2 -38 7 -53 40 -24 48 -34 146 -18 176 9
16 20 21 39 19 25 -3 27 -7 34 -68 6 -59 22 -120 31 -120 3 0 16 18 31 39 l27
39 -25 49 c-30 60 -48 151 -35 175 10 19 36 23 55 10 6 -4 20 -36 31 -72 l19
-65 12 53 c7 29 12 66 12 82 0 30 0 30 -59 30 -64 0 -85 13 -79 52 2 16 11 24
29 26 26 3 26 4 -65 162 -50 88 -93 159 -96 159 -3 0 -49 -76 -102 -169z m117
-137 c6 -15 18 -23 33 -23 34 0 62 -18 62 -40 0 -23 -28 -40 -64 -40 -16 0
-26 -6 -26 -15 0 -10 10 -15 34 -15 32 0 66 -21 66 -40 0 -16 -44 -40 -72 -40
l-28 0 0 -133 c0 -90 -4 -137 -12 -145 -19 -19 -66 -15 -78 7 -5 11 -10 76
-10 145 0 121 -1 126 -21 126 -31 0 -59 19 -59 40 0 21 28 40 59 40 19 0 21 6
21 68 0 41 5 73 12 80 20 20 72 10 83 -15z m-269 -129 c58 -20 87 -44 78 -67
-10 -27 -38 -29 -105 -5 -66 24 -83 45 -59 73 16 19 25 19 86 -1z m39 -131
c47 -46 -51 -241 -117 -231 -31 4 -36 43 -10 71 26 29 48 74 56 116 11 59 39
77 71 44z m115 2 c19 -22 8 -145 -17 -187 -21 -37 -53 -47 -73 -23 -11 13 -10
24 4 66 9 28 16 70 16 93 0 60 39 88 70 51z"/>
<path d="M792 2045 c-16 -36 -15 -48 8 -78 24 -30 146 -101 163 -94 13 5 53
75 46 81 -12 11 -191 116 -198 116 -4 0 -13 -11 -19 -25z"/>
<path d="M1395 2019 c-44 -28 -87 -54 -95 -58 -12 -8 -11 -14 5 -46 11 -21 25
-39 32 -42 6 -3 44 14 83 38 84 49 108 85 90 130 -7 16 -18 29 -24 28 -6 0
-47 -23 -91 -50z"/>
<path d="M12 1998 c-33 -33 14 -92 69 -86 28 2 35 8 37 29 5 47 -74 89 -106
57z"/>
<path d="M2206 1989 c-20 -15 -26 -29 -24 -48 4 -36 59 -43 94 -10 59 55 -6
109 -70 58z"/>
<path d="M558 1992 l-48 -3 0 -115 0 -114 55 0 55 0 -1 68 c-1 37 -4 90 -7
117 l-7 50 -47 -3z"/>
<path d="M680 1880 l0 -120 50 0 50 0 0 89 c0 112 -18 151 -67 151 l-33 0 0
-120z"/>
<path d="M180 1948 c0 -41 3 -44 50 -70 l50 -28 0 70 0 70 -50 0 -50 0 0 -42z"/>
<path d="M340 1907 c0 -67 3 -87 18 -99 17 -16 76 -48 87 -48 3 0 5 52 5 115
l0 115 -55 0 -55 0 0 -83z"/>
<path d="M1528 1959 c-13 -22 -18 -53 -18 -115 l0 -84 55 0 55 0 0 115 0 115
-37 0 c-32 0 -41 -5 -55 -31z"/>
<path d="M1680 1875 l0 -115 55 0 55 0 0 115 0 115 -55 0 -55 0 0 -115z"/>
<path d="M1850 1875 c0 -63 3 -115 8 -115 4 0 25 11 47 23 l40 23 3 92 3 92
-51 0 -50 0 0 -115z"/>
<path d="M2010 1920 c0 -38 2 -70 5 -70 3 0 27 12 55 28 47 26 50 29 50 70 l0
42 -55 0 -55 0 0 -70z"/>
<path d="M810 1858 l0 -53 38 0 c20 -1 45 -3 56 -5 11 -3 23 3 32 15 12 19 9
23 -56 58 l-70 38 0 -53z"/>
<path d="M1413 1871 c-54 -32 -61 -40 -50 -53 7 -9 34 -18 65 -20 l52 -5 0 58
c0 33 -1 59 -2 59 -2 -1 -31 -18 -65 -39z"/>
<path d="M122 1860 c-19 -11 -32 -24 -30 -28 26 -54 43 -82 49 -82 11 0 119
63 119 70 0 5 -93 60 -101 60 -2 0 -19 -9 -37 -20z"/>
<path d="M2082 1848 l-54 -31 61 -34 c34 -19 66 -31 71 -28 6 4 19 24 30 45
l20 38 -36 21 c-19 12 -36 21 -37 21 -1 0 -26 -14 -55 -32z"/>
<path d="M245 1740 c-38 -22 -70 -43 -70 -47 0 -5 10 -27 23 -50 l22 -42 97
55 c54 30 101 59 106 63 7 7 -81 61 -99 61 -5 -1 -40 -19 -79 -40z"/>
<path d="M1918 1753 c-27 -14 -48 -29 -48 -33 0 -3 15 -14 33 -23 17 -9 64
-34 103 -56 l71 -40 26 47 26 48 -78 42 c-43 23 -80 42 -82 42 -2 0 -25 -12
-51 -27z"/>
<path d="M420 1647 c-19 -11 -65 -38 -102 -59 l-67 -38 26 -45 c13 -25 26 -45
28 -45 4 0 198 110 203 115 4 4 -46 96 -51 94 -1 0 -18 -10 -37 -22z"/>
<path d="M1812 1621 c-12 -21 -22 -41 -22 -44 0 -6 192 -117 201 -117 7 0 54
89 49 93 -13 11 -191 107 -198 107 -5 0 -18 -17 -30 -39z"/>
<path d="M445 1469 c-49 -27 -94 -54 -98 -58 -4 -4 -3 -20 4 -34 19 -42 79
-38 164 12 36 22 69 41 71 44 7 6 -34 87 -44 87 -4 0 -47 -23 -97 -51z"/>
<path d="M1732 1481 c-12 -21 -22 -41 -22 -44 0 -4 31 -24 69 -47 83 -48 140
-54 165 -18 9 12 16 26 16 29 0 6 -194 119 -203 119 -2 0 -13 -17 -25 -39z"/>
<path d="M542 1370 l-64 -38 67 -37 c63 -36 67 -37 80 -19 27 34 28 62 5 99
-12 19 -22 35 -23 34 -1 0 -30 -18 -65 -39z"/>
<path d="M1666 1369 c-19 -32 -16 -60 8 -92 14 -18 17 -17 75 15 33 18 61 36
61 40 0 7 -105 68 -118 68 -4 0 -16 -14 -26 -31z"/>
<path d="M355 1290 c-9 -17 -13 -35 -10 -40 6 -10 184 -110 196 -110 4 0 18
20 32 44 l24 43 -79 47 c-98 57 -140 61 -163 16z"/>
<path d="M1778 1273 l-77 -45 26 -41 c14 -23 27 -44 29 -45 5 -6 205 109 202
116 -2 4 -10 19 -17 35 -21 41 -68 35 -163 -20z"/>
<path d="M282 1161 c-12 -21 -22 -43 -22 -49 0 -6 30 -27 68 -47 37 -21 81
-46 99 -57 l32 -19 27 46 c14 25 25 47 23 49 -4 4 -152 87 -185 104 -18 10
-23 7 -42 -27z"/>
<path d="M1893 1146 c-51 -29 -95 -55 -99 -58 -7 -8 38 -88 50 -88 9 0 183 95
196 107 5 5 -42 93 -50 92 -3 0 -47 -24 -97 -53z"/>
<path d="M1982 1005 c-51 -29 -98 -57 -103 -62 -11 -11 67 -63 93 -63 7 1 45
20 85 43 l72 43 -27 45 -27 46 -93 -52z"/>
<path d="M195 1010 c-14 -22 -25 -41 -25 -44 0 -2 36 -24 79 -49 l79 -44 51
29 c28 16 51 31 51 33 0 5 -196 115 -204 115 -3 0 -17 -18 -31 -40z"/>
<path d="M1118 956 c-14 -17 -53 -47 -87 -65 -33 -17 -61 -35 -61 -38 0 -9
175 -313 180 -313 5 0 180 304 180 313 0 3 -20 15 -45 26 -24 11 -66 40 -93
65 l-48 45 -26 -33z"/>
<path d="M115 871 c-14 -22 -25 -44 -25 -49 0 -5 16 -16 36 -25 35 -17 36 -17
85 9 27 15 49 30 49 33 0 4 -27 21 -60 39 l-59 33 -26 -40z"/>
<path d="M2093 878 c-29 -16 -53 -33 -53 -37 0 -4 23 -20 50 -35 l50 -27 36
21 35 22 -24 41 c-14 23 -29 42 -33 44 -5 1 -33 -12 -61 -29z"/>
<path d="M388 870 l-48 -30 0 -90 0 -90 55 0 55 0 0 120 c0 66 -3 120 -7 120
-5 0 -29 -14 -55 -30z"/>
<path d="M510 780 l0 -120 49 0 48 0 7 61 c3 34 6 88 6 120 l0 59 -55 0 -55 0
0 -120z"/>
<path d="M680 780 l0 -120 29 0 c49 0 71 48 71 154 l0 86 -50 0 -50 0 0 -120z"/>
<path d="M1510 819 c0 -65 4 -88 21 -115 11 -19 26 -34 32 -34 7 0 22 -3 35
-6 22 -6 22 -6 22 115 l0 121 -55 0 -55 0 0 -81z"/>
<path d="M1680 779 c0 -121 0 -121 23 -115 12 3 37 6 55 6 l32 0 0 115 0 115
-55 0 -55 0 0 -121z"/>
<path d="M1850 785 l0 -115 50 0 50 0 0 89 0 89 -44 26 c-25 14 -47 26 -50 26
-3 0 -6 -52 -6 -115z"/>
<path d="M810 798 l0 -46 65 36 c35 20 65 42 65 47 0 7 -26 11 -65 10 l-65 0
0 -47z"/>
<path d="M1363 837 c-3 -5 -3 -10 -2 -12 8 -6 110 -65 114 -65 3 0 5 19 5 43
l0 42 -56 0 c-31 0 -58 -4 -61 -8z"/>
<path d="M230 781 c-42 -25 -45 -30 -48 -74 l-3 -47 50 0 51 0 0 75 c0 41 -1
75 -2 74 -2 0 -23 -13 -48 -28z"/>
<path d="M2010 740 l0 -70 56 0 55 0 -3 42 c-3 38 -8 45 -48 69 -25 15 -48 28
-52 28 -5 1 -8 -30 -8 -69z"/>
<path d="M879 756 c-90 -54 -114 -88 -91 -132 8 -16 16 -31 18 -33 3 -3 186
101 203 115 5 5 -31 73 -45 84 -6 6 -38 -7 -85 -34z"/>
<path d="M1314 755 c-14 -25 -25 -47 -23 -49 2 -2 47 -29 99 -59 98 -58 112
-59 126 -15 8 25 -22 83 -50 97 -12 5 -44 24 -73 40 l-52 31 -27 -45z"/>
<path d="M22 727 c-25 -26 -28 -47 -10 -65 32 -32 111 10 106 57 -3 22 -9 26
-38 29 -27 2 -41 -3 -58 -21z"/>
<path d="M2187 743 c-16 -15 -5 -53 19 -72 64 -50 129 3 71 57 -22 21 -76 30
-90 15z"/>
<path d="M942 598 l-102 -60 26 -48 26 -48 87 52 c47 29 93 57 102 62 15 8 14
14 -10 55 l-26 46 -103 -59z"/>
<path d="M1227 608 c-23 -39 -24 -44 -9 -52 10 -5 56 -33 103 -62 l87 -52 26
47 26 48 -96 57 c-53 31 -100 56 -104 56 -4 0 -19 -19 -33 -42z"/>
<path d="M1025 454 c-49 -29 -91 -58 -93 -64 -3 -8 21 -56 44 -88 1 -2 36 18
78 43 l76 46 0 60 c0 32 -3 59 -7 58 -5 0 -48 -25 -98 -55z"/>
<path d="M1170 452 l0 -61 76 -46 c42 -25 77 -45 78 -43 18 25 46 78 46 85 0
8 -153 105 -192 121 -5 2 -8 -23 -8 -56z"/>
<path d="M1075 290 c-27 -16 -54 -31 -60 -33 -8 -3 20 -68 40 -95 2 -2 19 5
39 14 36 18 36 18 36 81 0 35 -1 63 -2 63 -2 0 -25 -14 -53 -30z"/>
<path d="M1170 258 c0 -62 1 -64 35 -82 19 -11 37 -17 38 -15 2 2 13 22 26 43
26 45 24 47 -51 91 l-48 27 0 -64z"/>
<path d="M1121 126 c-18 -21 -10 -97 12 -110 28 -18 52 4 55 53 3 46 -10 71
-38 71 -10 0 -23 -6 -29 -14z"/>
</g>
</svg>
