<?xml version="1.0" standalone="no"?>
<!DOCTYPE svg PUBLIC "-//W3C//DTD SVG 20010904//EN"
 "http://www.w3.org/TR/2001/REC-SVG-20010904/DTD/svg10.dtd">
<svg class="logo" version="1.0" xmlns="http://www.w3.org/2000/svg"
 viewBox="0 0 15 15">

<g transform="translate(0.000000, 15.00000) scale(0.005000, -0.005000)"
fill="#1242cc" id="logo">

<path d="M1252 2528 c-7 -7 -12 -31 -12 -54 0 -82 62 -86 68 -5 4 59 -25 90
-56 59z"/>
<path d="M1161 2354 c-28 -41 -26 -44 52 -88 l47 -27 0 64 c0 62 0 63 -33 75
-43 16 -38 17 -66 -24z"/>
<path d="M1318 2377 c-26 -10 -28 -14 -28 -74 l0 -64 48 27 c77 44 79 47 51
88 -26 38 -29 40 -71 23z"/>
<path d="M1088 2218 c-17 -39 -17 -42 0 -55 22 -17 161 -103 167 -103 3 0 5
27 5 60 0 54 -2 61 -24 69 -13 5 -46 23 -73 40 -28 17 -52 31 -54 31 -2 0 -12
-19 -21 -42z"/>
<path d="M1387 2229 c-27 -17 -60 -34 -73 -39 -22 -9 -24 -15 -24 -70 0 -33 2
-60 5 -60 7 0 158 92 173 104 10 9 9 20 -4 54 -10 23 -20 42 -23 42 -3 0 -28
-14 -54 -31z"/>
<path d="M1006 2083 c-27 -46 -24 -62 10 -63 6 0 29 -13 50 -28 21 -15 55 -37
75 -48 l35 -21 24 44 c13 24 21 45 19 46 -2 2 -26 16 -54 32 -27 16 -63 38
-80 50 -16 12 -35 25 -40 28 -6 3 -23 -15 -39 -40z"/>
<path d="M1479 2104 c-18 -14 -59 -39 -89 -56 -30 -17 -57 -33 -60 -35 -2 -2
7 -23 20 -47 l23 -43 36 20 c20 12 54 34 75 49 21 15 44 28 50 28 6 0 17 4 24
9 11 6 8 18 -15 55 l-29 46 -35 -26z"/>
<path d="M1253 1997 c-11 -18 -36 -59 -55 -92 -19 -33 -50 -84 -68 -113 -25
-39 -33 -64 -34 -100 -1 -44 -2 -47 -26 -43 -14 1 -122 5 -240 8 -207 4 -214
4 -199 -14 20 -23 201 -344 202 -358 0 -9 -25 -55 -150 -273 -29 -51 -53 -95
-53 -98 0 -3 102 -4 228 -2 l227 3 44 30 c47 32 75 66 86 103 6 22 6 22 -108
22 -96 0 -118 3 -137 18 -19 16 -21 22 -11 40 11 21 18 22 141 22 l130 0 0 38
c0 43 14 62 45 62 31 0 45 -19 45 -62 l0 -38 123 0 c127 0 147 -6 147 -42 0
-29 -34 -38 -149 -38 -96 0 -111 -2 -111 -16 0 -31 42 -84 88 -112 47 -27 47
-27 275 -30 125 -2 227 -2 227 1 0 4 -161 294 -191 343 -16 26 -16 33 -5 50 7
10 50 87 96 169 46 83 90 158 98 168 14 16 6 17 -146 17 l-162 0 0 -30 c0 -39
-18 -126 -36 -173 -19 -50 -19 -47 22 -100 21 -27 34 -53 30 -62 -9 -24 -57
-18 -88 12 l-28 26 -20 -26 c-19 -24 -26 -26 -81 -23 -69 3 -82 15 -98 89 -22
97 -7 146 41 134 23 -6 26 -13 31 -72 4 -36 12 -75 18 -87 l12 -22 23 30 c29
36 30 62 4 112 -26 50 -41 131 -28 155 5 11 18 17 31 15 17 -2 25 -15 38 -66
9 -34 19 -65 22 -68 6 -6 27 87 27 121 0 23 -4 25 -48 25 -58 0 -85 17 -80 51
2 18 10 25 30 27 l27 3 -29 47 c-16 26 -49 80 -72 120 -24 40 -52 86 -63 102
l-21 28 -21 -31z m33 -252 c5 -19 13 -25 33 -25 36 0 64 -22 60 -46 -3 -15
-14 -20 -47 -22 -53 -4 -60 -32 -8 -32 32 0 66 -21 66 -40 0 -16 -44 -40 -72
-40 l-28 0 0 -123 c0 -129 -5 -147 -45 -147 -39 0 -45 18 -45 145 l0 121 -32
9 c-43 14 -59 42 -34 61 11 8 30 14 43 14 22 0 23 4 23 63 0 70 10 87 52 87
21 0 29 -6 34 -25z m-255 -122 c66 -18 87 -40 69 -73 -13 -25 -20 -24 -95 3
-62 23 -78 44 -55 72 15 18 8 18 81 -2z m44 -130 c28 -27 5 -104 -52 -181 -20
-27 -31 -33 -56 -30 -39 4 -47 31 -19 61 27 30 52 81 52 107 0 20 32 60 49 60
5 0 17 -7 26 -17z m105 2 c17 -20 8 -130 -13 -172 -31 -58 -83 -54 -73 6 3 20
8 63 12 96 4 33 11 66 17 73 13 17 42 15 57 -3z"/>
<path d="M932 1965 c-7 -14 -12 -32 -12 -39 0 -28 44 -68 109 -99 l67 -32 22
33 c12 18 22 36 22 40 -1 11 -172 122 -188 122 -5 0 -14 -11 -20 -25z"/>
<path d="M1559 1972 c-14 -9 -53 -34 -87 -56 -34 -21 -62 -44 -62 -50 1 -6 11
-24 24 -39 l23 -29 69 34 c84 41 113 81 94 128 -14 34 -24 36 -61 12z"/>
<path d="M197 1923 c-14 -13 -7 -60 11 -76 10 -10 35 -17 55 -17 34 0 37 2 37
29 0 46 -75 92 -103 64z"/>
<path d="M2276 1909 c-17 -14 -26 -30 -26 -50 0 -27 3 -29 38 -29 27 0 45 7
60 23 55 58 -8 107 -72 56z"/>
<path d="M713 1912 l-43 -3 0 -110 0 -109 50 0 50 0 -1 68 c0 37 -4 87 -7 112
l-7 45 -42 -3z"/>
<path d="M830 1805 l0 -115 45 0 45 0 0 84 c0 45 -5 97 -11 115 -9 27 -16 31
-45 31 l-34 0 0 -115z"/>
<path d="M362 1870 c3 -36 8 -44 46 -66 l42 -25 0 65 0 66 -46 0 -45 0 3 -40z"/>
<path d="M510 1828 c0 -82 0 -83 33 -105 68 -46 67 -48 67 76 l0 111 -50 0
-50 0 0 -82z"/>
<path d="M1638 1879 c-13 -22 -18 -53 -18 -110 l0 -79 50 0 50 0 0 110 0 110
-32 0 c-26 0 -37 -6 -50 -31z"/>
<path d="M1780 1800 l0 -110 50 0 50 0 0 110 0 110 -50 0 -50 0 0 -110z"/>
<path d="M1940 1800 c0 -60 4 -110 9 -110 4 0 23 10 42 23 34 23 34 23 37 110
l3 87 -46 0 -45 0 0 -110z"/>
<path d="M2090 1845 c0 -36 3 -65 6 -65 3 0 25 12 50 26 40 24 44 29 44 65 l0
39 -50 0 -50 0 0 -65z"/>
<path d="M950 1782 c0 -44 2 -50 19 -45 10 2 35 0 55 -5 32 -9 38 -8 51 11 14
20 12 22 -33 47 -26 15 -57 30 -69 34 -22 7 -23 5 -23 -42z"/>
<path d="M1530 1803 c-39 -20 -55 -34 -55 -48 0 -17 9 -21 55 -26 30 -3 56 -5
58 -4 2 2 2 26 0 54 l-3 52 -55 -28z"/>
<path d="M305 1793 c-16 -8 -32 -17 -35 -20 -6 -5 43 -93 52 -93 10 0 108 63
108 70 0 4 -71 49 -90 57 -3 1 -18 -5 -35 -14z"/>
<path d="M2158 1778 l-48 -31 56 -33 c31 -19 60 -31 65 -28 5 3 18 23 29 44
l20 38 -36 21 c-19 12 -36 21 -37 20 -1 0 -23 -14 -49 -31z"/>
<path d="M425 1675 c-33 -19 -64 -36 -68 -38 -5 -1 1 -24 12 -49 l20 -48 68
39 c37 21 82 47 99 57 l32 18 -39 28 c-21 15 -44 28 -51 28 -7 0 -40 -16 -73
-35z"/>
<path d="M1999 1682 l-35 -27 40 -26 c23 -15 66 -41 97 -58 l57 -32 22 47 c19
38 20 48 9 55 -8 5 -17 9 -21 9 -4 0 -30 14 -58 30 -28 17 -56 30 -63 29 -7 0
-28 -12 -48 -27z"/>
<path d="M518 1549 l-97 -60 25 -37 c14 -20 27 -38 29 -40 2 -2 20 7 42 21 21
13 58 33 83 45 77 35 76 34 46 86 -15 25 -28 46 -29 45 -1 0 -46 -28 -99 -60z"/>
<path d="M1902 1561 c-12 -21 -22 -41 -22 -44 0 -7 63 -43 90 -52 12 -4 38
-18 57 -31 20 -13 39 -24 42 -24 7 1 51 69 50 78 0 8 -174 112 -187 112 -5 0
-18 -17 -30 -39z"/>
<path d="M654 1445 c-27 -12 -72 -38 -99 -57 -51 -33 -51 -33 -35 -60 22 -41
72 -38 149 7 33 20 63 40 66 45 7 11 -12 77 -24 84 -4 3 -30 -6 -57 -19z"/>
<path d="M1830 1442 c0 -10 -6 -27 -14 -37 -12 -17 -11 -21 8 -35 55 -42 117
-70 154 -70 32 0 41 4 51 27 14 32 7 39 -98 97 -71 40 -101 45 -101 18z"/>
<path d="M703 1323 l-52 -35 51 -34 c27 -19 54 -34 59 -34 5 0 17 15 26 34 15
33 15 36 -6 70 -13 20 -23 36 -24 35 -1 -1 -25 -17 -54 -36z"/>
<path d="M1765 1317 c-17 -33 -17 -35 1 -65 21 -37 24 -38 55 -13 13 10 37 25
53 33 l30 16 -41 21 c-23 11 -44 25 -48 31 -12 19 -32 10 -50 -23z"/>
<path d="M523 1245 c-9 -19 -15 -36 -12 -38 17 -16 179 -107 188 -107 12 0 51
80 45 92 -11 18 -149 88 -175 88 -24 0 -33 -7 -46 -35z"/>
<path d="M1925 1266 c-11 -7 -43 -27 -71 -45 l-52 -32 19 -36 c10 -20 20 -40
22 -46 3 -11 136 58 177 91 22 18 22 19 6 50 -14 26 -22 32 -49 31 -17 0 -41
-6 -52 -13z"/>
<path d="M448 1117 l-27 -41 67 -38 c37 -22 81 -48 99 -59 l32 -20 25 44 c14
24 26 46 26 48 0 2 -17 13 -37 23 -38 18 -58 28 -123 65 l-36 19 -26 -41z"/>
<path d="M2025 1134 c-21 -14 -63 -36 -92 -49 -29 -13 -53 -27 -53 -30 0 -12
45 -85 53 -85 12 0 56 24 117 64 30 20 58 37 63 39 10 3 -33 87 -44 87 -3 0
-23 -12 -44 -26z"/>
<path d="M2090 990 c-36 -20 -80 -46 -98 -57 l-33 -20 38 -24 c21 -13 42 -25
46 -27 5 -2 42 13 83 34 80 41 82 44 45 105 l-16 26 -65 -37z"/>
<path d="M372 993 c-5 -16 -13 -35 -17 -45 -5 -12 8 -23 57 -48 35 -18 68 -36
74 -41 9 -7 65 21 93 47 3 2 -4 11 -15 19 -28 22 -161 95 -173 95 -5 0 -14
-12 -19 -27z"/>
<path d="M1257 941 c-16 -21 -61 -53 -115 -80 -23 -12 -42 -24 -42 -27 0 -9
21 -47 55 -99 18 -27 52 -83 74 -122 23 -40 44 -73 46 -73 2 0 23 33 46 73 22
39 56 95 73 122 72 111 71 97 5 128 -32 15 -74 42 -94 61 -32 30 -37 32 -48
17z"/>
<path d="M292 848 c-12 -24 -22 -46 -22 -49 0 -3 17 -14 39 -23 38 -18 38 -18
79 11 23 15 41 30 41 33 0 5 -103 70 -111 70 -1 0 -13 -19 -26 -42z"/>
<path d="M2205 880 c-3 -5 -24 -19 -46 -30 -21 -11 -39 -24 -39 -28 0 -4 21
-20 46 -35 l46 -28 34 22 35 21 -24 41 c-26 44 -41 55 -52 37z"/>
<path d="M575 868 c-58 -32 -65 -47 -65 -135 l0 -83 50 0 50 0 0 115 c0 63 -3
115 -7 115 -5 0 -17 -6 -28 -12z"/>
<path d="M670 765 l0 -115 44 0 43 0 7 61 c3 34 6 86 6 115 l0 54 -50 0 -50 0
0 -115z"/>
<path d="M830 765 l0 -115 29 0 c45 0 55 22 59 131 l4 99 -46 0 -46 0 0 -115z"/>
<path d="M1620 805 c0 -75 21 -145 44 -145 6 0 21 -3 34 -6 22 -6 22 -6 22
110 l0 116 -50 0 -50 0 0 -75z"/>
<path d="M1780 764 c0 -116 0 -116 23 -110 12 3 34 6 50 6 l27 0 0 110 0 110
-50 0 -50 0 0 -116z"/>
<path d="M1940 770 l0 -110 45 0 46 0 -3 87 c-3 87 -3 87 -37 110 -19 13 -38
23 -42 23 -5 0 -9 -49 -9 -110z"/>
<path d="M950 783 c0 -24 3 -43 6 -43 16 0 124 66 124 75 0 7 -25 11 -65 10
l-65 0 0 -42z"/>
<path d="M1473 817 c-3 -5 -3 -10 -2 -12 8 -6 110 -65 114 -65 3 0 5 19 5 43
l0 42 -56 0 c-31 0 -58 -4 -61 -8z"/>
<path d="M403 763 c-40 -23 -43 -27 -43 -69 l0 -44 45 0 45 0 0 70 c0 39 -1
70 -2 69 -2 -1 -22 -12 -45 -26z"/>
<path d="M2090 725 l0 -65 50 0 50 0 0 39 c0 36 -4 41 -46 65 -26 14 -48 26
-50 26 -2 0 -4 -29 -4 -65z"/>
<path d="M1026 744 c-97 -44 -121 -80 -94 -139 8 -17 17 -24 27 -20 28 11 181
109 181 117 0 4 -10 22 -23 41 l-22 33 -69 -32z"/>
<path d="M1431 735 c-13 -20 -22 -37 -20 -38 2 -2 20 -14 39 -28 37 -27 144
-89 153 -89 2 0 10 14 17 31 21 50 -5 87 -90 127 -38 18 -70 32 -72 32 -2 0
-14 -16 -27 -35z"/>
<path d="M233 733 c-30 -6 -45 -27 -41 -60 2 -22 9 -29 29 -31 33 -4 79 32 79
63 0 20 -19 37 -38 34 -4 -1 -17 -4 -29 -6z"/>
<path d="M2263 733 c-37 -15 11 -93 58 -93 49 0 67 41 32 72 -20 17 -71 29
-90 21z"/>
<path d="M1089 595 c-46 -30 -90 -55 -97 -55 -9 0 -5 -16 14 -49 l27 -50 26
17 c14 9 40 26 56 39 17 12 49 30 71 40 l41 19 -26 46 -27 47 -85 -54z"/>
<path d="M1347 598 l-25 -42 41 -18 c22 -10 66 -36 97 -58 l58 -39 26 50 c19
33 23 49 14 49 -7 0 -48 23 -90 50 -43 28 -82 50 -87 50 -5 0 -20 -19 -34 -42z"/>
<path d="M1184 472 c-33 -21 -73 -47 -89 -58 l-29 -22 19 -38 c11 -22 21 -40
22 -42 0 -2 19 8 41 22 22 13 56 32 76 40 36 15 36 15 36 75 0 34 -3 61 -7 60
-5 0 -35 -17 -69 -37z"/>
<path d="M1290 449 c0 -60 0 -60 36 -75 20 -8 54 -27 76 -40 22 -14 41 -24 43
-22 13 16 35 79 31 87 -6 9 -173 111 -182 111 -2 0 -4 -27 -4 -61z"/>
<path d="M1205 300 c-27 -16 -54 -31 -60 -33 -10 -4 22 -74 38 -84 4 -2 23 1
42 7 l35 12 0 64 c0 35 -1 64 -2 64 -2 0 -25 -14 -53 -30z"/>
<path d="M1290 266 c0 -63 1 -64 31 -75 18 -6 35 -11 40 -11 7 0 49 66 49 78
0 4 -27 22 -60 40 l-60 33 0 -65z"/>
<path d="M1252 148 c-7 -7 -12 -31 -12 -54 0 -82 62 -86 68 -5 4 59 -25 90
-56 59z"/>
</g>
</svg>
